<svg width="69" height="69" viewBox="0 0 69 69" fill="none" xmlns="http://www.w3.org/2000/svg">
<path d="M15.3801 0L6.74573 2.14506L0 17.8068L5.18747 21.2476L9.46646 12.7386L12.1233 13.4981L9.775 36.7621H32.8171L34.2507 23.1385L34.3909 21.883H35.0921L34.2507 13.4981L36.9153 12.7386L41.185 21.2476L46.374 17.8068L39.6267 2.14506L30.9939 0C30.1369 0.599811 29.0928 0.962488 27.9553 1.23217C26.4905 1.5747 24.8388 1.73434 23.187 1.73434C21.5352 1.73434 19.8835 1.5747 18.4187 1.23217C17.2812 0.962488 16.2371 0.601361 15.3801 0ZM36.9153 24.6729L36.6816 26.8427H64.5434L64.3096 24.6729H36.9153ZM36.3855 29.6325L32.2249 69H41.9953L49.2412 35.3827H51.9837L59.2297 69H69L64.8394 29.6325H36.3855Z" fill="#2C2C2C"/>
</svg>
