<svg width="73" height="73" viewBox="0 0 73 73" fill="none" xmlns="http://www.w3.org/2000/svg">
<path d="M6.15184 0L0 2.54445L0.589435 3.97202L4.4037 2.39377L2.4384 8.77665L2.90995 9.91995L9.28671 7.28229L8.69882 5.85317L4.65964 7.52462L6.62339 1.14174L6.15184 0ZM37.1996 1.23339C32.7012 1.23339 27.3808 3.56348 23.6115 7.34753C19.8267 11.1331 17.5776 16.2236 18.7099 21.9245L18.7254 21.9556L19.47 26.6468C19.5475 26.6779 19.6406 26.7245 19.7182 26.7711C21.6416 27.6721 23.5495 28.4022 25.4419 28.9925C25.8917 27.874 26.4191 26.8954 27.0241 26.0721C28.2029 24.4566 29.5679 23.4624 31.4448 23.1051L34.0973 22.608L32.391 20.5265C30.9485 18.7867 29.9557 16.2391 29.9557 13.3964C29.9557 8.21122 33.0425 4.21279 36.455 3.7592L37.1375 3.77474C40.8913 3.77474 44.3503 7.86171 44.3503 13.3964C44.3503 16.1615 43.4197 18.678 42.0391 20.4178L40.3174 22.5614L43.0319 22.9808C45.1414 23.3226 46.5995 24.3012 47.7784 25.9012C48.3833 26.709 48.8952 27.6876 49.345 28.7905C51.2064 28.2002 53.0678 27.4701 54.9447 26.6313L55.6737 21.9556L55.6892 21.9245C56.8216 16.2236 54.5724 11.1331 50.7876 7.34753C47.0183 3.56348 41.6979 1.23339 37.1996 1.23339ZM67.0436 5.51609L66.3611 6.89705L70.0528 8.74403L63.9568 11.4469L63.3984 12.5529L69.572 15.6333L70.2545 14.2508L66.3456 12.3028L72.4416 9.5984L73 8.49238L67.0436 5.51609ZM66.7644 19.377L60.7149 20.1692L60.8856 21.5673L64.6548 21.0857L61.3819 26.2585L61.5215 27.3925L67.8037 26.5847L67.6175 25.1711L63.6466 25.6837L66.904 20.511L66.7644 19.377ZM19.2528 29.7692L26.1554 66.6311C26.6673 68.666 28.0478 70.2194 30.0333 71.3068C30.5762 71.6019 31.1501 71.866 31.755 72.0835C29.3353 62.3593 27.6755 51.7652 26.6208 42.3671L29.3818 42.0565C30.4986 51.8273 32.2669 62.9185 34.8263 72.8291C35.6019 72.9379 36.4085 73 37.1996 73C39.79 73 42.3649 72.4097 44.3659 71.3068C46.3513 70.2194 47.7318 68.666 48.2437 66.6311L54.1381 35.0973C53.6262 35.9517 53.0523 36.806 52.4163 37.6448C49.9345 40.907 46.3048 43.8895 40.1157 45.9089L39.2316 46.1885L38.6266 45.4895C35.9587 42.3827 31.3673 38.4371 27.0241 35.1284C24.1544 32.9381 21.3003 31.0119 19.2528 29.7692ZM6.74748 30.0177L6.45742 31.4002L10.1616 32.1769L5.38403 35.9983L5.1529 37.1167L11.3451 38.406L11.6336 37.0235L7.71385 36.2002L12.4883 32.3789L12.7194 31.2759L6.74748 30.0177ZM53.7038 30.173C45.4206 33.4662 36.9359 34.4449 28.3115 32.5963C28.4356 32.7051 28.5597 32.7983 28.6993 32.8915C32.8564 36.0604 37.122 39.7109 40.0692 42.9419C45.2655 41.1244 48.1041 38.7012 50.1982 35.9517C51.5632 34.1653 52.6024 32.1925 53.7038 30.173Z" fill="#2C2C2C"/>
</svg>
