<svg width="69" height="56" viewBox="0 0 69 56" fill="none" xmlns="http://www.w3.org/2000/svg">
<path fill-rule="evenodd" clip-rule="evenodd" d="M62.7624 6.35764C61.7382 2.41025 57.408 -0.190655 52.4799 0.0109455C47.7864 0.202591 40.474 0.645615 30.1991 1.6586C19.9258 2.67034 12.6962 3.66092 8.08394 4.38519C3.23709 5.14804 -0.18683 8.51925 0.00790275 12.5513C0.0738359 13.9251 0.185769 15.5765 0.363635 17.5179C1.73903 13.2283 6.34975 10.2067 11.8099 9.90059C16.6046 9.63054 24.5105 9.33312 36.0334 9.33312C47.5564 9.33312 55.4622 9.63179 60.257 9.90059C61.4497 9.96703 62.6256 10.1663 63.7514 10.4929C63.3977 8.90005 63.0681 7.52162 62.7624 6.35764ZM36.0334 56C24.5918 56 16.7748 55.7038 12.0737 55.44C7.74968 55.1973 4.25369 52.5703 3.82436 49.0012C3.44562 45.859 3.06689 41.0156 3.06689 34.2221C3.06689 27.4287 3.44562 22.5853 3.82436 19.443C4.25369 15.874 7.74968 13.2457 12.0737 13.0042C16.7733 12.7404 24.5918 12.4442 36.0334 12.4442C47.4751 12.4442 55.292 12.7404 59.9932 13.0042C64.3172 13.2469 67.8132 15.874 68.2425 19.443C68.6213 22.5853 69 27.4287 69 34.2221C69 41.0156 68.6213 45.859 68.2425 49.0012C67.8132 52.5703 64.3172 55.1986 59.9932 55.44C55.2936 55.7038 47.4751 56 36.0334 56ZM14.5669 21.1554C13.9569 21.1554 13.3718 21.3521 12.9405 21.7021C12.5092 22.0522 12.2669 22.527 12.2669 23.0221C12.2669 23.5171 12.5092 23.9919 12.9405 24.342C13.3718 24.6921 13.9569 24.8887 14.5669 24.8887H26.8335C27.4435 24.8887 28.0285 24.6921 28.4598 24.342C28.8912 23.9919 29.1335 23.5171 29.1335 23.0221C29.1335 22.527 28.8912 22.0522 28.4598 21.7021C28.0285 21.3521 27.4435 21.1554 26.8335 21.1554H14.5669ZM14.5669 36.0888C13.9569 36.0888 13.3718 36.2855 12.9405 36.6355C12.5092 36.9856 12.2669 37.4604 12.2669 37.9555C12.2669 38.4505 12.5092 38.9253 12.9405 39.2754C13.3718 39.6255 13.9569 39.8221 14.5669 39.8221H26.8335C27.4435 39.8221 28.0285 39.6255 28.4598 39.2754C28.8912 38.9253 29.1335 38.4505 29.1335 37.9555C29.1335 37.4604 28.8912 36.9856 28.4598 36.6355C28.0285 36.2855 27.4435 36.0888 26.8335 36.0888H14.5669ZM12.2669 45.4222C12.2669 44.9271 12.5092 44.4523 12.9405 44.1022C13.3718 43.7522 13.9569 43.5555 14.5669 43.5555H57.5C58.11 43.5555 58.695 43.7522 59.1264 44.1022C59.5577 44.4523 59.8 44.9271 59.8 45.4222C59.8 45.9172 59.5577 46.392 59.1264 46.7421C58.695 47.0922 58.11 47.2888 57.5 47.2888H14.5669C13.9569 47.2888 13.3718 47.0922 12.9405 46.7421C12.5092 46.392 12.2669 45.9172 12.2669 45.4222ZM14.5669 28.6221C13.9569 28.6221 13.3718 28.8188 12.9405 29.1688C12.5092 29.5189 12.2669 29.9937 12.2669 30.4888C12.2669 30.9838 12.5092 31.4586 12.9405 31.8087C13.3718 32.1588 13.9569 32.3554 14.5669 32.3554H26.8335C27.4435 32.3554 28.0285 32.1588 28.4598 31.8087C28.8912 31.4586 29.1335 30.9838 29.1335 30.4888C29.1335 29.9937 28.8912 29.5189 28.4598 29.1688C28.0285 28.8188 27.4435 28.6221 26.8335 28.6221H14.5669ZM46.7667 39.8221C43.7308 39.8221 41.42 39.7475 39.7625 39.6604C38.6424 39.6117 37.5839 39.2287 36.7906 38.585C35.9973 37.9414 35.525 37.0825 35.4646 36.1734C35.3246 34.2807 35.2586 32.3849 35.2668 30.4888C35.2668 28.0248 35.3588 26.1494 35.4661 24.8041C35.5261 23.895 35.998 23.036 36.7911 22.3921C37.5841 21.7482 38.6424 21.365 39.7625 21.3159C41.42 21.2288 43.7292 21.1554 46.7667 21.1554C49.8043 21.1554 52.1135 21.2301 53.771 21.3172C54.8911 21.3659 55.9496 21.7489 56.7429 22.3925C57.5362 23.0361 58.0085 23.895 58.0689 24.8041C58.1762 26.1494 58.2667 28.0235 58.2667 30.4888C58.2667 32.954 58.1747 34.8282 58.0674 36.1734C58.0074 37.0825 57.5355 37.9416 56.7424 38.5854C55.9494 39.2293 54.8911 39.6126 53.771 39.6616C52.1135 39.7487 49.8043 39.8221 46.7667 39.8221Z" fill="#2C2C2C"/>
</svg>
