<svg width="70" height="60" viewBox="0 0 70 60" fill="none" xmlns="http://www.w3.org/2000/svg">
<path fill-rule="evenodd" clip-rule="evenodd" d="M24.367 54.5965C14.0665 46.6377 0 33.4907 0 21.0602C0 0.293285 19.25 -7.46079 35 8.57677C50.75 -7.46079 70 0.293285 70 21.0602C70 33.4907 55.93 46.6377 45.633 54.5965C40.971 58.1965 38.64 60 35 60C31.36 60 29.029 58.2 24.367 54.5965ZM50.75 11.4709C51.4462 11.4709 52.1139 11.7498 52.6062 12.2462C53.0984 12.7426 53.375 13.4159 53.375 14.1179V18.5296H57.75C58.4462 18.5296 59.1139 18.8085 59.6062 19.305C60.0984 19.8014 60.375 20.4747 60.375 21.1767C60.375 21.8787 60.0984 22.552 59.6062 23.0484C59.1139 23.5449 58.4462 23.8237 57.75 23.8237H53.375V28.2355C53.375 28.9375 53.0984 29.6108 52.6062 30.1072C52.1139 30.6036 51.4462 30.8825 50.75 30.8825C50.0538 30.8825 49.3861 30.6036 48.8938 30.1072C48.4016 29.6108 48.125 28.9375 48.125 28.2355V23.8237H43.75C43.0538 23.8237 42.3861 23.5449 41.8938 23.0484C41.4016 22.552 41.125 21.8787 41.125 21.1767C41.125 20.4747 41.4016 19.8014 41.8938 19.305C42.3861 18.8085 43.0538 18.5296 43.75 18.5296H48.125V14.1179C48.125 13.4159 48.4016 12.7426 48.8938 12.2462C49.3861 11.7498 50.0538 11.4709 50.75 11.4709Z" fill="#2C2C2C"/>
</svg>
