<svg width="68" height="68" viewBox="0 0 68 68" fill="none" xmlns="http://www.w3.org/2000/svg">
<path d="M53.7433 0L36.6353 16.3532L43.9624 23.3854L47.6259 19.9024L43.9624 16.3532L53.7433 6.96585L57.4069 10.482L61.1395 6.96585M65.9781 6.96585L45.7942 26.3376L38.4325 28.6927L2.38475 63.2566L7.32706 68L26.8544 49.1922L41.5431 63.2566L56.1972 49.1922L41.5431 35.1278L42.1306 34.4976L49.4922 32.1424L65.9781 16.3532C68.674 13.7659 68.674 9.55317 65.9781 6.96585ZM14.6541 9.32098L0 23.3854L17.108 39.8049L31.7621 25.7405M54.9875 55.0634L47.6259 62.0956L52.4991 66.7727L59.8607 59.7073L54.9875 55.0634Z" fill="#2C2C2C"/>
</svg>
