<svg width="64" height="64" viewBox="0 0 64 64" fill="none" xmlns="http://www.w3.org/2000/svg">
<path d="M27.9998 41.3332H35.9998V34.6666H42.6665V26.6666H35.9998V19.9999H27.9998V26.6666H21.3332V34.6666H27.9998V41.3332ZM31.9998 58.6666C25.8221 57.111 20.7216 53.5661 16.6985 48.0319C12.6754 42.4977 10.6647 36.3537 10.6665 29.5999V13.3333L31.9998 5.33325L53.3332 13.3333V29.5999C53.3332 36.3555 51.3225 42.5004 47.3012 48.0346C43.2798 53.5688 38.1794 57.1128 31.9998 58.6666ZM31.9998 53.0666C36.6221 51.5999 40.4443 48.6666 43.4665 44.2666C46.4887 39.8666 47.9998 34.9777 47.9998 29.5999V16.9999L31.9998 10.9999L15.9998 16.9999V29.5999C15.9998 34.9777 17.5109 39.8666 20.5332 44.2666C23.5554 48.6666 27.3776 51.5999 31.9998 53.0666Z" fill="#00417A"/>
</svg>
