<svg width="64" height="64" viewBox="0 0 64 64" fill="none" xmlns="http://www.w3.org/2000/svg">
<path d="M33.9199 28.7999C32.6399 28.4799 31.3599 27.8399 30.3999 26.8799C29.4399 26.5599 29.1199 25.5999 29.1199 24.9599C29.1199 24.3199 29.4399 23.3599 30.0799 23.0399C31.0399 22.3999 31.9999 21.7599 32.9599 22.0799C34.8799 22.0799 36.4799 23.0399 37.4399 24.3199L40.3199 20.4799C39.3599 19.5199 38.3999 18.8799 37.4399 18.2399C36.4799 17.5999 35.1999 17.2799 33.9199 17.2799V12.7999H30.0799V17.2799C28.4799 17.5999 26.8799 18.5599 25.5999 19.8399C24.3199 21.4399 23.3599 23.3599 23.6799 25.2799C23.6799 27.1999 24.3199 29.1199 25.5999 30.3999C27.1999 31.9999 29.4399 32.9599 31.3599 33.9199C32.3199 34.2399 33.5999 34.8799 34.5599 35.5199C35.1999 36.1599 35.5199 37.1199 35.5199 38.0799C35.5199 39.0399 35.1999 39.9999 34.5599 40.9599C33.5999 41.9199 32.3199 42.2399 31.3599 42.2399C30.0799 42.2399 28.4799 41.9199 27.5199 40.9599C26.5599 40.3199 25.5999 39.3599 24.9599 38.3999L21.7599 41.9199C22.7199 43.1999 23.6799 44.1599 24.9599 45.1199C26.5599 46.0799 28.4799 47.0399 30.3999 47.0399V51.1999H33.9199V46.3999C35.8399 46.0799 37.4399 45.1199 38.7199 43.8399C40.3199 42.2399 41.2799 39.6799 41.2799 37.4399C41.2799 35.5199 40.6399 33.2799 39.0399 31.9999C37.4399 30.3999 35.8399 29.4399 33.9199 28.7999ZM31.9999 6.3999C17.9199 6.3999 6.3999 17.9199 6.3999 31.9999C6.3999 46.0799 17.9199 57.5999 31.9999 57.5999C46.0799 57.5999 57.5999 46.0799 57.5999 31.9999C57.5999 17.9199 46.0799 6.3999 31.9999 6.3999ZM31.9999 54.0799C19.8399 54.0799 9.9199 44.1599 9.9199 31.9999C9.9199 19.8399 19.8399 9.9199 31.9999 9.9199C44.1599 9.9199 54.0799 19.8399 54.0799 31.9999C54.0799 44.1599 44.1599 54.0799 31.9999 54.0799Z" fill="#00417A"/>
</svg>
