<svg width="64" height="64" viewBox="0 0 64 64" fill="none" xmlns="http://www.w3.org/2000/svg">
<path d="M32 16V32L44 44M32 8V12M32 52V56M8 32H12M52 32H56M58 32C58 38.8956 55.2607 45.5088 50.3848 50.3848C45.5088 55.2607 38.8956 58 32 58C25.1044 58 18.4912 55.2607 13.6152 50.3848C8.73928 45.5088 6 38.8956 6 32C6 25.1044 8.73928 18.4912 13.6152 13.6152C18.4912 8.73928 25.1044 6 32 6C38.8956 6 45.5088 8.73928 50.3848 13.6152C55.2607 18.4912 58 25.1044 58 32Z" stroke="#00417A" stroke-width="5"/>
</svg>
