<svg width="60" height="60" viewBox="0 0 60 60" fill="none" xmlns="http://www.w3.org/2000/svg">
<path fill-rule="evenodd" clip-rule="evenodd" d="M42.4109 8.18464L47.9009 13.6746C55.968 21.7445 60 25.7764 60 30.7864C60 35.7993 55.968 39.8312 47.9009 47.8981C39.8309 55.968 35.7988 60 30.7858 60C25.7758 60 21.7407 55.968 13.6737 47.9011L8.18365 42.4112C3.54862 37.7733 1.22961 35.4573 0.368601 32.4483C-0.495405 29.4394 0.2426 26.2444 1.71861 19.8575L2.56762 16.1735C3.80662 10.7976 4.42763 8.10964 6.26664 6.26766C8.10565 4.42568 10.7967 3.80769 16.1727 2.5687L19.8567 1.71672C26.2468 0.243733 29.4388 -0.494258 32.4478 0.366732C35.4568 1.23072 37.7758 3.54969 42.4109 8.18464ZM27.4378 36.9843C25.4188 34.9683 25.4338 32.0703 26.6428 29.7754C26.3435 29.3431 26.205 28.8196 26.2515 28.2958C26.298 27.7721 26.5264 27.2811 26.8971 26.9082C27.2679 26.5354 27.7575 26.3041 28.281 26.2546C28.8045 26.2052 29.3288 26.3406 29.7628 26.6374C30.7828 26.0974 31.9018 25.8094 33.0178 25.8214C33.6146 25.827 34.1847 26.0694 34.6027 26.4953C35.0207 26.9212 35.2524 27.4957 35.2468 28.0924C35.2413 28.6891 34.9989 29.2592 34.573 29.6772C34.1471 30.0952 33.5726 30.3269 32.9758 30.3214C32.2812 30.347 31.6247 30.6456 31.1488 31.1524C29.9878 32.3133 30.2908 33.4773 30.6178 33.8043C30.9478 34.1313 32.1088 34.4343 33.2698 33.2733C35.6218 30.9214 39.6839 30.1414 42.2849 32.7423C44.3039 34.7613 44.2889 37.6593 43.0799 39.9542C43.3773 40.3866 43.5142 40.9094 43.4669 41.4321C43.4196 41.9548 43.1911 42.4445 42.8209 42.8165C42.4506 43.1884 41.962 43.4193 41.4396 43.4691C40.9171 43.5189 40.3937 43.3845 39.9599 43.0892C38.6136 43.8278 37.052 44.074 35.5438 43.7852C34.959 43.6651 34.4459 43.3175 34.1173 42.8191C33.7888 42.3206 33.6717 41.712 33.7918 41.1272C33.912 40.5424 34.2595 40.0293 34.758 39.7008C35.2565 39.3722 35.865 39.2551 36.4498 39.3753C36.9808 39.4862 37.8389 39.3123 38.5739 38.5773C39.7349 37.4133 39.4319 36.2523 39.1049 35.9253C38.7749 35.5983 37.6138 35.2953 36.4528 36.4563C34.1008 38.8083 30.0388 39.5882 27.4378 36.9843ZM24.0598 24.8794C24.6168 24.3222 25.0587 23.6607 25.3601 22.9326C25.6615 22.2046 25.8166 21.4244 25.8164 20.6364C25.8163 19.8485 25.6609 19.0683 25.3593 18.3404C25.0576 17.6125 24.6155 16.9511 24.0583 16.394C23.501 15.837 22.8395 15.3951 22.1114 15.0937C21.3834 14.7923 20.6031 14.6373 19.8152 14.6374C19.0272 14.6375 18.247 14.7929 17.5191 15.0945C16.7912 15.3962 16.1298 15.8383 15.5727 16.3955C14.4476 17.521 13.8158 19.0472 13.816 20.6385C13.8163 22.2299 14.4488 23.7559 15.5742 24.8809C16.6997 26.006 18.2259 26.6378 19.8173 26.6376C21.4086 26.6373 22.9347 26.0049 24.0598 24.8794Z" fill="#2C2C2C"/>
</svg>
