<svg width="41" height="37" viewBox="0 0 41 37" fill="none" xmlns="http://www.w3.org/2000/svg">
<path fill-rule="evenodd" clip-rule="evenodd" d="M36.7531 0.253128C37.2572 0.0289967 37.809 -0.0483048 38.3509 0.0292688C38.8929 0.106842 39.4053 0.336456 39.8348 0.69421C40.2643 1.05196 40.5951 1.52478 40.7929 2.06344C40.9907 2.60211 41.0482 3.18693 40.9594 3.75704L36.3329 33.4023C35.8841 36.2619 32.914 37.9018 30.4314 36.4774C28.3547 35.2857 25.2704 33.4497 22.4961 31.534C21.1089 30.5751 16.8598 27.5043 17.382 25.3192C17.8308 23.4509 24.9705 16.4301 29.0503 12.2561C30.6517 10.6162 29.9214 9.67015 28.0304 11.1786C23.3345 14.9239 15.7949 20.6193 13.3021 22.2226C11.1031 23.6362 9.95664 23.8776 8.58581 23.6362C6.08487 23.1966 3.76547 22.5157 1.87242 21.686C-0.685643 20.5655 -0.561208 16.8504 1.87038 15.7686L36.7531 0.253128Z" fill="#2C2C2C"/>
</svg>
