<svg width="33" height="38" viewBox="0 0 33 38" fill="none" xmlns="http://www.w3.org/2000/svg">
<path d="M26.1811 5.95333C24.7428 4.30567 23.95 2.19006 23.9503 0H17.4471V26.1778C17.398 27.5947 16.8021 28.9372 15.7851 29.9218C14.7681 30.9065 13.4096 31.4564 11.9962 31.4556C9.00765 31.4556 6.52424 29.0067 6.52424 25.9667C6.52424 22.3356 10.0179 19.6122 13.6167 20.7311V14.06C6.35587 13.0889 0 18.7467 0 25.9667C0 32.9967 5.80867 38 11.9751 38C18.5835 38 23.9503 32.6167 23.9503 25.9667V12.6878C26.5873 14.5875 29.7534 15.6067 33 15.6011V9.07778C33 9.07778 29.0434 9.26778 26.1811 5.95333Z" fill="#2C2C2C"/>
</svg>
