<svg width="40" height="43" viewBox="0 0 40 43" fill="none" xmlns="http://www.w3.org/2000/svg">
<path fill-rule="evenodd" clip-rule="evenodd" d="M30.1659 1.10787C23.4705 -0.369289 16.5273 -0.369289 9.83197 1.10787L9.11055 1.2654C7.22671 1.67987 5.49638 2.60224 4.11221 3.92982C2.72804 5.2574 1.74435 6.93809 1.27065 8.78478C-0.42355 15.3857 -0.42355 22.2993 1.27065 28.9002C1.72245 30.6613 2.63853 32.273 3.92582 33.5716C5.2131 34.8702 6.82571 35.8093 8.5998 36.2935L9.58937 42.1242C9.62095 42.3093 9.70226 42.4828 9.82481 42.6264C9.94735 42.77 10.1067 42.8785 10.2862 42.9407C10.4656 43.0029 10.6587 43.0165 10.8454 42.98C11.032 42.9435 11.2052 42.8583 11.3472 42.7333L17.159 37.6021C21.5218 37.862 25.8999 37.5177 30.1659 36.5792L30.8895 36.4217C32.7733 36.0072 34.5036 35.0848 35.8878 33.7572C37.272 32.4296 38.2557 30.749 38.7294 28.9023C40.4235 22.3014 40.4235 15.3878 38.7294 8.78688C38.2555 6.93993 37.2715 5.25905 35.8869 3.93145C34.5023 2.60384 32.7716 1.68162 30.8873 1.2675L30.1659 1.10787ZM11.6281 8.61465C11.2326 8.55748 10.8291 8.63608 10.4853 8.83729H10.4555C9.65747 9.29937 8.93817 9.88118 8.32528 10.5659C7.81454 11.1477 7.53788 11.7358 7.46553 12.3029C7.42297 12.639 7.45276 12.9792 7.55278 13.3006L7.59109 13.3216C8.16567 14.9872 8.91476 16.5898 9.82984 18.0979C11.0103 20.2158 12.4622 22.1748 14.1499 23.9265L14.2009 23.9979L14.2818 24.0567L14.3308 24.1134L14.3903 24.1638C16.1715 25.8343 18.161 27.2742 20.3107 28.4486C22.7686 29.7697 24.2604 30.3935 25.1564 30.654V30.6666C25.4181 30.7464 25.6565 30.7821 25.8969 30.7821C26.6604 30.7281 27.3831 30.4217 27.9484 29.9126C28.6401 29.3076 29.2253 28.5956 29.6807 27.8038V27.7891C30.1084 26.9909 29.9637 26.239 29.3466 25.7286C28.108 24.6583 26.7674 23.7087 25.3436 22.8931C24.3903 22.3827 23.422 22.6914 23.0304 23.2081L22.1941 24.2499C21.7642 24.7666 20.9853 24.6952 20.9853 24.6952L20.964 24.7078C15.1522 23.2438 13.6008 17.4363 13.6008 17.4363C13.6008 17.4363 13.5285 16.6465 14.0669 16.2432L15.1139 15.4115C15.6161 15.0082 15.9651 14.0546 15.4267 13.1137C14.6023 11.7094 13.6423 10.387 12.5602 9.16495C12.3235 8.87799 11.992 8.68242 11.6238 8.61255M21.4471 6.08998C21.1649 6.08998 20.8943 6.20063 20.6947 6.39758C20.4952 6.59453 20.3831 6.86165 20.3831 7.14018C20.3831 7.4187 20.4952 7.68582 20.6947 7.88277C20.8943 8.07972 21.1649 8.19037 21.4471 8.19037C24.1391 8.19037 26.3736 9.05783 28.1421 10.7213C29.0508 11.6308 29.7594 12.7083 30.2234 13.8887C30.6894 15.0712 30.9022 16.3336 30.8469 17.598C30.841 17.7359 30.8627 17.8736 30.9108 18.0032C30.9588 18.1329 31.0323 18.2519 31.1269 18.3535C31.3181 18.5587 31.584 18.6806 31.8663 18.6923C32.1485 18.704 32.4238 18.6046 32.6317 18.4159C32.8397 18.2272 32.9631 17.9647 32.975 17.6862C33.0385 16.131 32.777 14.5795 32.2067 13.1284C31.6339 11.6698 30.7615 10.344 29.6445 9.23426L29.6232 9.21326C27.4292 7.14438 24.652 6.08998 21.4471 6.08998ZM21.3747 9.54302C21.0925 9.54302 20.8219 9.65366 20.6224 9.85061C20.4228 10.0476 20.3107 10.3147 20.3107 10.5932C20.3107 10.8717 20.4228 11.1389 20.6224 11.3358C20.8219 11.5328 21.0925 11.6434 21.3747 11.6434H21.4109C23.3517 11.7799 24.7648 12.4184 25.7544 13.4665C26.7695 14.5461 27.2951 15.8883 27.2547 17.5476C27.2482 17.8261 27.3541 18.0958 27.549 18.2973C27.744 18.4987 28.012 18.6155 28.2942 18.6219C28.5764 18.6283 28.8497 18.5238 29.0538 18.3314C29.2579 18.139 29.3763 17.8744 29.3828 17.5959C29.4338 15.4178 28.7231 13.5379 27.3143 12.0383V12.0341C25.8735 10.5092 23.8965 9.70265 21.5173 9.54512L21.4812 9.54092L21.3747 9.54302ZM21.3343 13.0612C21.1919 13.0488 21.0484 13.0648 20.9125 13.1083C20.7765 13.1519 20.6508 13.222 20.5429 13.3145C20.435 13.4071 20.3471 13.5201 20.2844 13.647C20.2218 13.7738 20.1856 13.9117 20.1782 14.0526C20.1707 14.1935 20.1922 14.3345 20.2411 14.467C20.2901 14.5996 20.3656 14.721 20.4632 14.8242C20.5608 14.9273 20.6784 15.0099 20.8091 15.0672C20.9397 15.1244 21.0807 15.1551 21.2237 15.1573C22.1132 15.2036 22.6814 15.4682 23.0389 15.8232C23.3986 16.1802 23.6667 16.7536 23.7157 17.6505C23.7183 17.7914 23.7497 17.9304 23.8079 18.0591C23.8661 18.1878 23.95 18.3037 24.0546 18.3997C24.1591 18.4957 24.2822 18.57 24.4164 18.6181C24.5506 18.6662 24.6933 18.6872 24.8359 18.6797C24.9786 18.6722 25.1182 18.6365 25.2465 18.5746C25.3748 18.5127 25.4892 18.426 25.5829 18.3196C25.6765 18.2132 25.7475 18.0892 25.7916 17.9551C25.8357 17.8211 25.852 17.6796 25.8395 17.5392C25.7714 16.279 25.3713 15.1657 24.552 14.3466C23.7284 13.5274 22.6069 13.1284 21.3343 13.0612Z" fill="#2C2C2C"/>
</svg>
